<svg width="37" height="42" viewBox="0 0 37 42" fill="none" xmlns="http://www.w3.org/2000/svg">
<path d="M22.5534 22.8433H13.4199C11.6724 22.8433 10.3618 22.376 9.54908 21.4514C8.7363 20.5269 8.42134 19.1858 8.6347 17.4485L9.54908 9.82879C9.81323 7.58351 10.3822 5.5719 14.3444 5.5719H21.6594C25.6115 5.5719 26.1804 7.58351 26.4547 9.82879L27.3691 17.4485C27.5723 19.1858 27.2675 20.5371 26.4547 21.4514C25.6115 22.376 24.311 22.8433 22.5534 22.8433ZM14.3343 7.09585C11.4083 7.09585 11.266 8.25404 11.0527 10.0015L10.1383 17.6212C9.98594 18.9115 10.1688 19.8564 10.6869 20.4355C11.2051 21.0146 12.1195 21.3092 13.4199 21.3092H22.5534C23.8538 21.3092 24.7682 21.0146 25.2863 20.4355C25.8045 19.8564 25.9874 18.9115 25.835 17.6212L24.9206 10.0015C24.7072 8.24388 24.5752 7.09585 21.639 7.09585H14.3343Z" fill="white"/>
<path d="M22.055 8.61974C21.6384 8.61974 21.293 8.27431 21.293 7.85777V4.30189C21.293 3.20464 20.6123 2.52395 19.5151 2.52395H16.4672C15.3699 2.52395 14.6892 3.20464 14.6892 4.30189V7.85777C14.6892 8.27431 14.3438 8.61974 13.9273 8.61974C13.5107 8.61974 13.1653 8.27431 13.1653 7.85777V4.30189C13.1653 2.36139 14.5267 1 16.4672 1H19.5151C21.4556 1 22.817 2.36139 22.817 4.30189V7.85777C22.817 8.27431 22.4715 8.61974 22.055 8.61974Z" fill="white"/>
<path d="M2.46 31.66H3.55V32.24C3.55 34.01 2.72 35.6 0.93 36.19L0.27 35.14C1.81 34.63 2.46 33.42 2.46 32.24V31.66ZM2.73 31.66H3.81V32.24C3.81 33.32 4.43 34.38 5.92 34.83L5.29 35.87C3.53 35.34 2.73 33.89 2.73 32.24V31.66ZM0.62 31.25H5.62V32.31H0.62V31.25ZM6.36 30.63H7.69V36.12H6.36V30.63ZM7.32 32.76H8.92V33.85H7.32V32.76ZM4.67 36.29C6.59 36.29 7.8 36.96 7.8 38.09C7.8 39.22 6.59 39.89 4.67 39.89C2.74 39.89 1.53 39.22 1.53 38.09C1.53 36.96 2.74 36.29 4.67 36.29ZM4.67 37.33C3.49 37.33 2.85 37.57 2.85 38.09C2.85 38.61 3.49 38.87 4.67 38.87C5.85 38.87 6.48 38.61 6.48 38.09C6.48 37.57 5.85 37.33 4.67 37.33ZM15.5192 30.63H16.8592V39.89H15.5192V30.63ZM16.5592 34.08H18.1992V35.18H16.5592V34.08ZM9.87922 31.36H11.1992V33.61H13.0592V31.36H14.3792V37.75H9.87922V31.36ZM11.1992 34.64V36.68H13.0592V34.64H11.1992ZM19.7584 31.17H25.5684V32.22H19.7584V31.17ZM18.8084 35.11H27.1784V36.18H18.8084V35.11ZM22.2784 35.86H23.6184V39.9H22.2784V35.86ZM24.8884 31.17H26.1984V31.99C26.1984 32.99 26.1984 34.11 25.8384 35.75L24.5284 35.6C24.8884 34.05 24.8884 32.95 24.8884 31.99V31.17ZM34.4077 30.63H35.7377V39.89H34.4077V30.63ZM28.4877 31.51H29.8077V37.26H28.4877V31.51ZM28.4877 36.48H29.3077C30.6577 36.48 32.1577 36.38 33.6877 36.08L33.8377 37.18C32.2477 37.51 30.7177 37.61 29.3077 37.61H28.4877V36.48Z" fill="white" fill-opacity="0.7"/>
</svg>
