<svg width="24" height="42" viewBox="0 0 24 42" fill="none" xmlns="http://www.w3.org/2000/svg">
<path d="M12.0265 20.8624C9.63469 20.8624 7.24291 20.4826 4.97431 19.723C4.11203 19.4253 3.45506 18.8197 3.16764 18.0293C2.86995 17.2388 2.9726 16.3663 3.4448 15.5862L4.62529 13.6255C4.87165 13.2149 5.09749 12.3937 5.09749 11.9112V8.94461C5.09749 5.12597 8.20783 2.01562 12.0265 2.01562C15.8451 2.01562 18.9555 5.12597 18.9555 8.94461V11.9112C18.9555 12.3834 19.1813 13.2149 19.4277 13.6358L20.5979 15.5862C21.0393 16.3252 21.1214 17.2183 20.8238 18.0293C20.5261 18.8402 19.8794 19.4561 19.0684 19.723C16.8101 20.4826 14.4183 20.8624 12.0265 20.8624ZM12.0265 3.5554C9.05984 3.5554 6.63726 5.96771 6.63726 8.94461V11.9112C6.63726 12.6606 6.32931 13.7692 5.9495 14.4159L4.769 16.3766C4.54317 16.7564 4.48158 17.1567 4.61503 17.4955C4.73821 17.8445 5.04616 18.1114 5.46703 18.2551C9.75787 19.6922 14.3054 19.6922 18.5962 18.2551C18.9658 18.1319 19.2532 17.8548 19.3866 17.4852C19.5201 17.1157 19.4893 16.7153 19.284 16.3766L18.1035 14.4159C17.7134 13.7487 17.4157 12.6503 17.4157 11.901V8.94461C17.4157 5.96771 15.0034 3.5554 12.0265 3.5554Z" fill="white"/>
<path d="M13.9357 3.83319C13.8639 3.83319 13.792 3.82292 13.7201 3.80239C13.4225 3.72027 13.135 3.65868 12.8579 3.61762C11.9853 3.5047 11.1436 3.56629 10.3532 3.80239C10.0657 3.89478 9.75782 3.80239 9.56278 3.58682C9.36774 3.37125 9.30615 3.0633 9.41907 2.78614C9.83994 1.7083 10.8664 1 12.0367 1C13.2069 1 14.2334 1.69803 14.6543 2.78614C14.7569 3.0633 14.7056 3.37125 14.5106 3.58682C14.3566 3.75106 14.141 3.83319 13.9357 3.83319Z" fill="white"/>
<path d="M12.0257 23.2039C11.0094 23.2039 10.024 22.7933 9.30544 22.0748C8.58688 21.3562 8.17627 20.3707 8.17627 19.3545H9.71604C9.71604 19.9601 9.96238 20.5555 10.3935 20.9867C10.8247 21.4178 11.42 21.6642 12.0257 21.6642C13.2986 21.6642 14.3353 20.6274 14.3353 19.3545H15.8751C15.8751 21.4794 14.1506 23.2039 12.0257 23.2039Z" fill="white"/>
<path d="M8.66078 30.63H9.99078V35.25H8.66078V30.63ZM9.45078 32.4H11.2108V33.49H9.45078V32.4ZM3.87078 35.62H9.99078V38.16H5.21078V39.26H3.89078V37.2H8.68078V36.64H3.87078V35.62ZM3.89078 38.75H10.2608V39.79H3.89078V38.75ZM5.23078 30.9C6.65078 30.9 7.70078 31.77 7.70078 33C7.70078 34.22 6.65078 35.1 5.23078 35.1C3.82078 35.1 2.76078 34.22 2.76078 33C2.76078 31.77 3.82078 30.9 5.23078 30.9ZM5.23078 31.97C4.55078 31.97 4.05078 32.35 4.05078 33C4.05078 33.65 4.55078 34.04 5.23078 34.04C5.92078 34.04 6.42078 33.65 6.42078 33C6.42078 32.35 5.92078 31.97 5.23078 31.97ZM18.26 30.63H19.6V36.12H18.26V30.63ZM12.38 34.74H13.19C14.99 34.74 16.16 34.71 17.5 34.49L17.65 35.54C16.27 35.78 15.04 35.82 13.19 35.82H12.38V34.74ZM12.37 31.16H16.63V33.95H13.69V35.38H12.38V32.96H15.32V32.21H12.37V31.16ZM13.44 36.54H19.6V39.79H13.44V36.54ZM18.29 37.58H14.74V38.74H18.29V37.58Z" fill="white" fill-opacity="0.7"/>
</svg>
