<svg width="24" height="42" viewBox="0 0 24 42" fill="none" xmlns="http://www.w3.org/2000/svg">
<path d="M2.98078 31.5H7.41078V37.64H2.98078V31.5ZM6.10078 32.54H4.29078V36.59H6.10078V32.54ZM8.62078 30.63H9.96078V39.89H8.62078V30.63ZM9.66078 34.12H11.3008V35.22H9.66078V34.12ZM18.25 30.62H19.59V39.91H18.25V30.62ZM14.6 31.27C16 31.27 17.03 32.55 17.03 34.57C17.03 36.61 16 37.89 14.6 37.89C13.2 37.89 12.17 36.61 12.17 34.57C12.17 32.55 13.2 31.27 14.6 31.27ZM14.6 32.48C13.91 32.48 13.44 33.21 13.44 34.57C13.44 35.95 13.91 36.69 14.6 36.69C15.29 36.69 15.75 35.95 15.75 34.57C15.75 33.21 15.29 32.48 14.6 32.48Z" fill="white" fill-opacity="0.7"/>
<path d="M12.1235 13.5655C12.1031 13.5655 12.0724 13.5655 12.0519 13.5655C12.0212 13.5655 11.9803 13.5655 11.9496 13.5655C9.62674 13.4938 7.88721 11.6827 7.88721 9.45197C7.88721 7.18034 9.7393 5.32825 12.011 5.32825C14.2826 5.32825 16.1347 7.18034 16.1347 9.45197C16.1244 11.6929 14.3747 13.4938 12.1542 13.5655C12.1337 13.5655 12.1337 13.5655 12.1235 13.5655ZM12.0007 6.8529C10.5682 6.8529 9.41186 8.01941 9.41186 9.44174C9.41186 10.8436 10.5068 11.9794 11.8984 12.0306C11.9291 12.0204 12.0314 12.0204 12.1337 12.0306C13.5049 11.959 14.5793 10.8334 14.5896 9.44174C14.5896 8.01941 13.4333 6.8529 12.0007 6.8529Z" fill="white"/>
<path d="M12.001 23.0004C9.24844 23.0004 6.61867 21.9771 4.58239 20.1148C4.39821 19.9511 4.31634 19.7055 4.33681 19.4702C4.46983 18.2525 5.22704 17.1167 6.48565 16.2776C9.53495 14.2515 14.4773 14.2515 17.5163 16.2776C18.7749 17.1269 19.5321 18.2525 19.6652 19.4702C19.6959 19.7157 19.6038 19.9511 19.4196 20.1148C17.3833 21.9771 14.7535 23.0004 12.001 23.0004ZM5.94332 19.2655C7.64193 20.6878 9.78053 21.4655 12.001 21.4655C14.2214 21.4655 16.3601 20.6878 18.0587 19.2655C17.8745 18.6413 17.3833 18.0376 16.6568 17.5464C14.1396 15.8683 9.87262 15.8683 7.33495 17.5464C6.60844 18.0376 6.12751 18.6413 5.94332 19.2655Z" fill="white"/>
<path d="M12 23C5.93209 23 1 18.0679 1 12C1 5.93209 5.93209 1 12 1C18.0679 1 23 5.93209 23 12C23 18.0679 18.0679 23 12 23ZM12 2.53488C6.7814 2.53488 2.53488 6.7814 2.53488 12C2.53488 17.2186 6.7814 21.4651 12 21.4651C17.2186 21.4651 21.4651 17.2186 21.4651 12C21.4651 6.7814 17.2186 2.53488 12 2.53488Z" fill="white"/>
</svg>
