<svg width="24" height="42" viewBox="0 0 24 42" fill="none" xmlns="http://www.w3.org/2000/svg">
<path d="M19.7669 10.3084C19.7669 14.9799 15.9799 18.7669 11.3084 18.7669C6.63697 18.7669 2.85 14.9799 2.85 10.3084C2.85 5.63696 6.63696 1.85 11.3084 1.85C15.9799 1.85 19.7669 5.63697 19.7669 10.3084Z" stroke="white" stroke-width="1.7" stroke-linecap="round" stroke-linejoin="round"/>
<path d="M22.4786 21.2478L17.3589 16.3589" stroke="white" stroke-width="1.7" stroke-linecap="round" stroke-linejoin="round"/>
<path d="M2.74 34.69H3.51C5.31 34.69 6.37 34.66 7.58 34.44L7.72 35.48C6.48 35.7 5.36 35.74 3.51 35.74H2.74V34.69ZM2.74 31.16H7.09V32.21H4.07V35.1H2.74V31.16ZM3.66 32.92H6.89V33.96H3.66V32.92ZM3.67 36.45H9.69V39.79H3.67V36.45ZM8.39 37.49H4.98V38.74H8.39V37.49ZM8.36 30.63H9.69V36.04H8.36V30.63ZM9.32 32.79H10.92V33.89H9.32V32.79ZM13.2692 31.16H14.3092V32.22C14.3092 33.8 13.6792 35.37 12.1692 36.02L11.4692 34.99C12.7592 34.42 13.2692 33.27 13.2692 32.22V31.16ZM13.5092 31.16H14.5492V32.22C14.5492 33.25 15.0392 34.25 16.2592 34.76L15.5592 35.77C14.1192 35.18 13.5092 33.76 13.5092 32.22V31.16ZM18.2292 30.64H19.4892V36.25H18.2292V30.64ZM17.1192 32.88H18.5892V33.96H17.1192V32.88ZM16.2692 30.78H17.5092V36.2H16.2692V30.78ZM13.1292 36.65H19.4892V39.89H18.1692V37.71H13.1292V36.65Z" fill="white" fill-opacity="0.7"/>
</svg>
